<?xml version="1.0" encoding="UTF-8" standalone="no"?>
<!-- Created with Inkscape (http://www.inkscape.org/) -->

<svg
   xmlns:dc="http://purl.org/dc/elements/1.1/"
   xmlns:cc="http://creativecommons.org/ns#"
   xmlns:rdf="http://www.w3.org/1999/02/22-rdf-syntax-ns#"
   xmlns:svg="http://www.w3.org/2000/svg"
   xmlns="http://www.w3.org/2000/svg"
   xmlns:xlink="http://www.w3.org/1999/xlink"
   xmlns:sodipodi="http://sodipodi.sourceforge.net/DTD/sodipodi-0.dtd"
   xmlns:inkscape="http://www.inkscape.org/namespaces/inkscape"
   width="16"
   height="16"
   id="svg2"
   sodipodi:version="0.32"
   inkscape:version="0.48.1 r9760"
   version="1.0"
   sodipodi:docname="start-here-gentoo-symbolic.svg"
   inkscape:output_extension="org.inkscape.output.svg.inkscape"
   style="display:inline">
  <defs
     id="defs4">
    <linearGradient
       id="linearGradient3722">
      <stop
         id="stop3724"
         offset="0"
         style="stop-color:#aaaaaa;stop-opacity:1;" />
      <stop
         id="stop3726"
         offset="1"
         style="stop-color:#f0f0f0;stop-opacity:1;" />
    </linearGradient>
    <linearGradient
       id="linearGradient3295">
      <stop
         style="stop-color:#559829;stop-opacity:1;"
         offset="0"
         id="stop3297" />
      <stop
         style="stop-color:#86c837;stop-opacity:1;"
         offset="1"
         id="stop3299" />
    </linearGradient>
    <linearGradient
       id="linearGradient3287">
      <stop
         style="stop-color:#cd0000;stop-opacity:1;"
         offset="0"
         id="stop3289" />
      <stop
         style="stop-color:#e55300;stop-opacity:1;"
         offset="1"
         id="stop3291" />
    </linearGradient>
    <linearGradient
       id="linearGradient3279">
      <stop
         style="stop-color:#f08e00;stop-opacity:1;"
         offset="0"
         id="stop3281" />
      <stop
         style="stop-color:#ffd200;stop-opacity:1;"
         offset="1"
         id="stop3283" />
    </linearGradient>
    <linearGradient
       id="linearGradient3271">
      <stop
         style="stop-color:#395d93;stop-opacity:1;"
         offset="0"
         id="stop3273" />
      <stop
         style="stop-color:#6e92c7;stop-opacity:1;"
         offset="1"
         id="stop3275" />
    </linearGradient>
    <linearGradient
       inkscape:collect="always"
       id="linearGradient3327">
      <stop
         style="stop-color:#000000;stop-opacity:1;"
         offset="0"
         id="stop3330" />
      <stop
         style="stop-color:#000000;stop-opacity:0;"
         offset="1"
         id="stop3333" />
    </linearGradient>
    <linearGradient
       inkscape:collect="always"
       xlink:href="#linearGradient3327"
       id="linearGradient3335"
       x1="11.375"
       y1="22"
       x2="11.375"
       y2="-9.817296"
       gradientUnits="userSpaceOnUse" />
    <inkscape:perspective
       sodipodi:type="inkscape:persp3d"
       inkscape:vp_x="0 : 11 : 1"
       inkscape:vp_y="0 : 1000 : 0"
       inkscape:vp_z="22 : 11 : 1"
       inkscape:persp3d-origin="11 : 7.3333333 : 1"
       id="perspective102" />
    <linearGradient
       id="linearGradient4081">
      <stop
         style="stop-color:#aaaaaa;stop-opacity:1;"
         offset="0"
         id="stop4083" />
      <stop
         style="stop-color:#f0f0f0;stop-opacity:1;"
         offset="1"
         id="stop4085" />
    </linearGradient>
    <linearGradient
       id="linearGradient4057">
      <stop
         style="stop-color:#816647;stop-opacity:1;"
         offset="0"
         id="stop4059" />
      <stop
         style="stop-color:#a6845d;stop-opacity:1;"
         offset="1"
         id="stop4061" />
    </linearGradient>
    <linearGradient
       id="linearGradient3929">
      <stop
         style="stop-color:#000000;stop-opacity:1;"
         offset="0"
         id="stop3931" />
      <stop
         style="stop-color:#000000;stop-opacity:0;"
         offset="1"
         id="stop3933" />
    </linearGradient>
    <linearGradient
       inkscape:collect="always"
       xlink:href="#linearGradient3929"
       id="linearGradient4051"
       x1="9.494998"
       y1="15.516565"
       x2="9.494998"
       y2="-4.1786065"
       gradientUnits="userSpaceOnUse" />
    <linearGradient
       inkscape:collect="always"
       xlink:href="#linearGradient4057"
       id="linearGradient4063"
       x1="9.17138"
       y1="21.000002"
       x2="9.17138"
       y2="0.97239029"
       gradientUnits="userSpaceOnUse" />
    <linearGradient
       inkscape:collect="always"
       xlink:href="#linearGradient4081"
       id="linearGradient4089"
       x1="6.101758"
       y1="154.58195"
       x2="6.101758"
       y2="36.995476"
       gradientUnits="userSpaceOnUse" />
    <linearGradient
       inkscape:collect="always"
       xlink:href="#linearGradient4081"
       id="linearGradient4103"
       gradientUnits="userSpaceOnUse"
       x1="6.101758"
       y1="154.58195"
       x2="6.101758"
       y2="36.995476" />
    <linearGradient
       inkscape:collect="always"
       xlink:href="#linearGradient4081"
       id="linearGradient4105"
       gradientUnits="userSpaceOnUse"
       x1="6.101758"
       y1="154.58195"
       x2="6.101758"
       y2="36.995476" />
    <linearGradient
       inkscape:collect="always"
       xlink:href="#linearGradient4081"
       id="linearGradient4107"
       gradientUnits="userSpaceOnUse"
       x1="6.101758"
       y1="154.58195"
       x2="6.101758"
       y2="36.995476" />
    <linearGradient
       inkscape:collect="always"
       xlink:href="#linearGradient4081"
       id="linearGradient4109"
       gradientUnits="userSpaceOnUse"
       x1="6.101758"
       y1="154.58195"
       x2="6.101758"
       y2="36.995476" />
    <linearGradient
       inkscape:collect="always"
       xlink:href="#linearGradient4081"
       id="linearGradient4111"
       gradientUnits="userSpaceOnUse"
       x1="6.101758"
       y1="154.58195"
       x2="6.101758"
       y2="36.995476" />
    <linearGradient
       inkscape:collect="always"
       xlink:href="#linearGradient4081"
       id="linearGradient4113"
       gradientUnits="userSpaceOnUse"
       x1="6.101758"
       y1="154.58195"
       x2="6.101758"
       y2="36.995476" />
    <linearGradient
       inkscape:collect="always"
       xlink:href="#linearGradient4081"
       id="linearGradient4115"
       gradientUnits="userSpaceOnUse"
       x1="6.101758"
       y1="154.58195"
       x2="6.101758"
       y2="36.995476" />
    <linearGradient
       inkscape:collect="always"
       xlink:href="#linearGradient4081"
       id="linearGradient4117"
       gradientUnits="userSpaceOnUse"
       x1="6.101758"
       y1="154.58195"
       x2="6.101758"
       y2="36.995476" />
    <linearGradient
       inkscape:collect="always"
       xlink:href="#linearGradient4081"
       id="linearGradient4119"
       gradientUnits="userSpaceOnUse"
       x1="6.101758"
       y1="154.58195"
       x2="6.101758"
       y2="36.995476" />
    <linearGradient
       inkscape:collect="always"
       xlink:href="#linearGradient4081"
       id="linearGradient4121"
       gradientUnits="userSpaceOnUse"
       x1="6.101758"
       y1="154.58195"
       x2="6.101758"
       y2="36.995476" />
    <linearGradient
       inkscape:collect="always"
       xlink:href="#linearGradient4081"
       id="linearGradient4123"
       gradientUnits="userSpaceOnUse"
       x1="6.101758"
       y1="154.58195"
       x2="6.101758"
       y2="36.995476" />
    <linearGradient
       inkscape:collect="always"
       xlink:href="#linearGradient4081"
       id="linearGradient4125"
       gradientUnits="userSpaceOnUse"
       x1="6.101758"
       y1="154.58195"
       x2="6.101758"
       y2="36.995476" />
    <linearGradient
       inkscape:collect="always"
       xlink:href="#linearGradient4081"
       id="linearGradient4127"
       gradientUnits="userSpaceOnUse"
       x1="6.101758"
       y1="154.58195"
       x2="6.101758"
       y2="36.995476" />
    <linearGradient
       inkscape:collect="always"
       xlink:href="#linearGradient4081"
       id="linearGradient4129"
       gradientUnits="userSpaceOnUse"
       x1="6.101758"
       y1="154.58195"
       x2="6.101758"
       y2="36.995476" />
    <linearGradient
       inkscape:collect="always"
       xlink:href="#linearGradient4081"
       id="linearGradient4132"
       gradientUnits="userSpaceOnUse"
       x1="6.101758"
       y1="154.58195"
       x2="6.101758"
       y2="36.995476"
       gradientTransform="matrix(0.1317916,0,0,0.1317916,11.619896,-1.9882468)" />
    <linearGradient
       inkscape:collect="always"
       xlink:href="#linearGradient4081"
       id="linearGradient4141"
       gradientUnits="userSpaceOnUse"
       x1="6.101758"
       y1="154.58195"
       x2="6.101758"
       y2="36.995476"
       gradientTransform="matrix(0.1317916,0,0,0.1317916,11.619896,-1.9882468)" />
    <linearGradient
       inkscape:collect="always"
       xlink:href="#linearGradient4081"
       id="linearGradient4148"
       gradientUnits="userSpaceOnUse"
       x1="6.101758"
       y1="154.58195"
       x2="6.101758"
       y2="36.995476"
       gradientTransform="matrix(0.1317916,0,0,0.1317916,11.619896,-1.9882468)" />
    <linearGradient
       inkscape:collect="always"
       xlink:href="#linearGradient4081"
       id="linearGradient4158"
       gradientUnits="userSpaceOnUse"
       x1="6.101758"
       y1="154.58195"
       x2="6.101758"
       y2="36.995476"
       gradientTransform="matrix(0.1317916,0,0,0.1317916,11.619896,-1.9882468)" />
    <linearGradient
       inkscape:collect="always"
       xlink:href="#linearGradient4081"
       id="linearGradient4180"
       gradientUnits="userSpaceOnUse"
       x1="6.101758"
       y1="154.58195"
       x2="6.101758"
       y2="36.995476" />
    <linearGradient
       inkscape:collect="always"
       xlink:href="#linearGradient4081"
       id="linearGradient4182"
       gradientUnits="userSpaceOnUse"
       gradientTransform="matrix(0.1317916,0,0,0.1317916,11.619896,-1.9882468)"
       x1="6.101758"
       y1="154.58195"
       x2="6.101758"
       y2="36.995476" />
    <linearGradient
       inkscape:collect="always"
       xlink:href="#linearGradient4081"
       id="linearGradient4184"
       gradientUnits="userSpaceOnUse"
       x1="6.101758"
       y1="154.58195"
       x2="6.101758"
       y2="36.995476" />
    <linearGradient
       inkscape:collect="always"
       xlink:href="#linearGradient4081"
       id="linearGradient4186"
       gradientUnits="userSpaceOnUse"
       gradientTransform="matrix(0.1317916,0,0,0.1317916,11.619896,-1.9882468)"
       x1="6.101758"
       y1="154.58195"
       x2="6.101758"
       y2="36.995476" />
    <linearGradient
       inkscape:collect="always"
       xlink:href="#linearGradient4081"
       id="linearGradient2480"
       gradientUnits="userSpaceOnUse"
       gradientTransform="matrix(0.1256322,0,0,0.1256322,11.921746,-1.0005124)"
       x1="6.101758"
       y1="154.58195"
       x2="6.101758"
       y2="36.995476" />
    <linearGradient
       inkscape:collect="always"
       xlink:href="#linearGradient4081"
       id="linearGradient2483"
       gradientUnits="userSpaceOnUse"
       gradientTransform="matrix(0.1256322,0,0,0.1256322,11.921746,-1.0005124)"
       x1="6.101758"
       y1="154.58195"
       x2="6.101758"
       y2="36.995476" />
    <linearGradient
       inkscape:collect="always"
       xlink:href="#linearGradient4081"
       id="linearGradient2489"
       gradientUnits="userSpaceOnUse"
       gradientTransform="matrix(0.1256322,0,0,0.1256322,11.921746,-1.0005124)"
       x1="6.101758"
       y1="154.58195"
       x2="6.101758"
       y2="36.995476" />
    <linearGradient
       inkscape:collect="always"
       xlink:href="#linearGradient4081"
       id="linearGradient2495"
       gradientUnits="userSpaceOnUse"
       gradientTransform="matrix(0.1256322,0,0,0.1256322,11.921746,-1.0005124)"
       x1="6.101758"
       y1="154.58195"
       x2="6.101758"
       y2="36.995476" />
    <linearGradient
       inkscape:collect="always"
       xlink:href="#linearGradient4081"
       id="linearGradient2498"
       gradientUnits="userSpaceOnUse"
       gradientTransform="matrix(0.1256322,0,0,0.1256322,11.921746,-1.0005124)"
       x1="6.101758"
       y1="154.58195"
       x2="6.101758"
       y2="36.995476" />
    <linearGradient
       inkscape:collect="always"
       xlink:href="#linearGradient4081"
       id="linearGradient2501"
       gradientUnits="userSpaceOnUse"
       gradientTransform="matrix(0.1256322,0,0,0.1256322,11.921746,-1.0005124)"
       x1="6.101758"
       y1="154.58195"
       x2="6.101758"
       y2="36.995476" />
    <linearGradient
       inkscape:collect="always"
       xlink:href="#linearGradient4081"
       id="linearGradient2504"
       gradientUnits="userSpaceOnUse"
       gradientTransform="matrix(0.1256322,0,0,0.1256322,11.921746,-1.0005124)"
       x1="6.101758"
       y1="154.58195"
       x2="6.101758"
       y2="36.995476" />
    <linearGradient
       inkscape:collect="always"
       xlink:href="#linearGradient4081"
       id="linearGradient2506"
       gradientUnits="userSpaceOnUse"
       x1="6.101758"
       y1="154.58195"
       x2="6.101758"
       y2="36.995476" />
    <linearGradient
       inkscape:collect="always"
       xlink:href="#linearGradient4081"
       id="linearGradient2508"
       gradientUnits="userSpaceOnUse"
       gradientTransform="matrix(0.1317916,0,0,0.1317916,11.619896,-1.9882468)"
       x1="6.101758"
       y1="154.58195"
       x2="6.101758"
       y2="36.995476" />
    <linearGradient
       inkscape:collect="always"
       xlink:href="#linearGradient4081"
       id="linearGradient2510"
       gradientUnits="userSpaceOnUse"
       gradientTransform="matrix(0.1317916,0,0,0.1317916,11.619896,-1.9882468)"
       x1="6.101758"
       y1="154.58195"
       x2="6.101758"
       y2="36.995476" />
    <clipPath
       clipPathUnits="userSpaceOnUse"
       id="clipPath4974">
      <path
         id="path4976"
         d="M 16.625,2 C 15.93281,2.046173 15.13978,2.350316 14.5,2.875 13.716105,3.517873 13.079371,5.1522168 13.25,6.0625 13.337976,6.531842 13.692147,7.1029241 14.03125,7.28125 14.662734,7.613335 15.813682,7.0624791 16.875,5.9375 18.021489,4.722239 18.547995,3.383178 18.15625,2.625 17.915497,2.159052 17.31719,1.953827 16.625,2 z M 10.96875,2.71875 C 10.005789,2.719616 9.496306,3.3967078 9.5,4.6875 c 0.00253,0.88392 0.31322,1.6791318 0.71875,1.875 0.301512,0.145631 0.309051,0.1320361 0.6875,0 C 11.533114,6.343793 12.122053,4.8839409 12,3.90625 11.900109,3.106091 11.556193,2.7182209 10.96875,2.71875 z m -3.8125,1.3125 C 6.976067,4.0573035 6.795347,4.173262 6.625,4.34375 6.281636,4.687396 6.277056,4.8747068 6.28125,5.53125 6.286196,6.305553 6.475145,6.7277249 7,7.28125 7.392601,7.695296 7.675716,7.7200481 8.03125,7.34375 8.416388,6.936117 8.535971,6.296057 8.40625,5.59375 8.208416,4.5226825 7.696799,3.9530895 7.15625,4.03125 z M 4.46875,6.375 C 4.281799,6.4054104 4.1133,6.5115553 3.9375,6.6875 3.476154,7.14923 3.798831,8.4188978 4.53125,9.0625 5.405425,9.830669 6.111327,9.1273309 5.8125,7.78125 5.599846,6.8233425 5.029603,6.2837687 4.46875,6.375 z M 12.5,8.0625 C 11.88094,8.0518483 11.187196,8.1034691 10.46875,8.25 8.61799,8.627471 7.13709,9.3254488 6.1875,10.28125 5.640611,10.831715 5.327697,11.341306 5.0625,12.125 c -0.641919,1.896963 0.546896,4.595678 2.8125,6.4375 0.844088,0.686203 1.359152,0.993313 2.21875,1.28125 0.445736,0.149308 0.799163,0.183992 1.625,0.15625 0.946716,-0.03181 1.139252,-0.07408 1.75,-0.375 0.895036,-0.440989 1.909553,-1.461035 2.34375,-2.34375 0.264885,-0.5385 0.307321,-0.768628 0.28125,-1.21875 -0.04452,-0.768578 -0.342658,-0.977756 -1.3125,-0.96875 -1.38452,0.01285 -1.965756,0.333932 -2.25,1.3125 -0.21469,0.739118 -0.452038,1 -0.9375,1 -0.769368,0 -1.5625,-0.611791 -1.5625,-1.25 0,-0.443994 0.715313,-1.10577 2.5,-2.3125 2.514116,-1.69994 3.378489,-2.734111 3.25,-3.875 C 15.64852,8.7901993 14.35718,8.0944552 12.5,8.0625 z"
         style="fill:#ffffff;fill-opacity:1;stroke:none"
         inkscape:connector-curvature="0" />
    </clipPath>
    <clipPath
       clipPathUnits="userSpaceOnUse"
       id="clipPath4995">
      <path
         style="fill:#ffffff;fill-opacity:1;fill-rule:nonzero;stroke:none;display:inline"
         d="M 30,0 30,22 52,22 52,0 30,0 z M 46.625,2 C 47.31719,1.953827 47.915497,2.159052 48.15625,2.625 48.547995,3.383178 48.021489,4.722239 46.875,5.9375 45.813682,7.0624791 44.662734,7.613335 44.03125,7.28125 43.692147,7.1029241 43.337976,6.531842 43.25,6.0625 43.079371,5.1522168 43.716105,3.517873 44.5,2.875 45.13978,2.350316 45.93281,2.046173 46.625,2 z m -5.65625,0.71875 c 0.587443,-5.291e-4 0.931359,0.387341 1.03125,1.1875 0.122053,0.9776909 -0.466886,2.437543 -1.09375,2.65625 -0.378449,0.1320361 -0.385988,0.145631 -0.6875,0 C 39.81322,6.3666318 39.502528,5.57142 39.5,4.6875 39.496306,3.3967078 40.005789,2.719616 40.96875,2.71875 z m -3.8125,1.3125 c 0.540549,-0.078161 1.052166,0.4914325 1.25,1.5625 0.129721,0.702307 0.01014,1.342367 -0.375,1.75 C 37.675716,7.7200481 37.392601,7.695296 37,7.28125 36.475145,6.7277249 36.286196,6.305553 36.28125,5.53125 36.277056,4.8747068 36.281636,4.687396 36.625,4.34375 36.795347,4.173262 36.976067,4.0573035 37.15625,4.03125 z M 34.46875,6.375 C 35.029603,6.2837687 35.599846,6.8233425 35.8125,7.78125 36.111327,9.1273309 35.405425,9.830669 34.53125,9.0625 33.798831,8.4188978 33.476154,7.14923 33.9375,6.6875 34.1133,6.5115553 34.281799,6.4054104 34.46875,6.375 z M 42.5,8.0625 c 1.85718,0.031955 3.14852,0.7276993 3.28125,1.90625 0.128489,1.140889 -0.735884,2.17506 -3.25,3.875 -1.784687,1.20673 -2.5,1.868506 -2.5,2.3125 0,0.638209 0.793132,1.25 1.5625,1.25 0.485462,0 0.72281,-0.260882 0.9375,-1 0.284244,-0.978568 0.86548,-1.299646 2.25,-1.3125 0.969842,-0.009 1.267977,0.200172 1.3125,0.96875 0.02607,0.450122 -0.01637,0.68025 -0.28125,1.21875 -0.434197,0.882715 -1.448714,1.902761 -2.34375,2.34375 -0.610748,0.300916 -0.803284,0.343192 -1.75,0.375 -0.825837,0.02774 -1.179264,-0.0069 -1.625,-0.15625 C 39.234152,19.555813 38.719088,19.248703 37.875,18.5625 35.609396,16.720678 34.420581,14.021963 35.0625,12.125 35.327697,11.341306 35.640611,10.831715 36.1875,10.28125 37.13709,9.3254488 38.61799,8.627471 40.46875,8.25 41.187196,8.1034691 41.88094,8.0518483 42.5,8.0625 z"
         id="path4997"
         inkscape:connector-curvature="0" />
    </clipPath>
    <inkscape:perspective
       id="perspective4374"
       inkscape:persp3d-origin="0.5 : 0.33333333 : 1"
       inkscape:vp_z="1 : 0.5 : 1"
       inkscape:vp_y="0 : 1000 : 0"
       inkscape:vp_x="0 : 0.5 : 1"
       sodipodi:type="inkscape:persp3d" />
    <linearGradient
       id="StandardGradient-1"
       gradientTransform="matrix(0.9984539,0,0,0.9984539,-0.0459776,0.05767558)"
       x1="10.710332"
       y1="1.9963325"
       x2="10.710332"
       y2="18.974037"
       gradientUnits="userSpaceOnUse">
      <stop
         style="stop-color:#000000;stop-opacity:0.86274511;"
         offset="0"
         id="stop3277-4" />
      <stop
         style="stop-color:#000000;stop-opacity:0.47058824;"
         offset="1"
         id="stop3279-3" />
    </linearGradient>
    <linearGradient
       id="SpecificGradient-5"
       x1="10.761708"
       y1="3.9999998"
       x2="10.761708"
       y2="18.011395"
       gradientUnits="userSpaceOnUse">
      <stop
         style="stop-color:#a50000;stop-opacity:1;"
         offset="0"
         id="stop3292-8" />
      <stop
         style="stop-color:#e73800;stop-opacity:1;"
         offset="1"
         id="stop3294-0" />
    </linearGradient>
    <linearGradient
       inkscape:collect="always"
       xlink:href="#StandardGradient-1"
       id="linearGradient3738"
       gradientUnits="userSpaceOnUse"
       x1="12"
       y1="8"
       x2="12"
       y2="20.041595" />
    <linearGradient
       inkscape:collect="always"
       xlink:href="#StandardGradient-1"
       id="linearGradient3741"
       gradientUnits="userSpaceOnUse"
       x1="12"
       y1="8"
       x2="12"
       y2="20.041595"
       gradientTransform="translate(-30,0)" />
    <linearGradient
       inkscape:collect="always"
       xlink:href="#StandardGradient-1"
       id="linearGradient3747"
       gradientUnits="userSpaceOnUse"
       x1="12"
       y1="8"
       x2="12"
       y2="20.041595"
       gradientTransform="translate(0,1)" />
    <linearGradient
       inkscape:collect="always"
       xlink:href="#StandardGradient-1"
       id="linearGradient3751"
       gradientUnits="userSpaceOnUse"
       x1="12"
       y1="8"
       x2="12"
       y2="20.041595" />
    <clipPath
       clipPathUnits="userSpaceOnUse"
       id="clipPath3758">
      <path
         style="fill:#ff00ff;fill-opacity:1;stroke:none;display:inline"
         d="m -30,0 0,22 22,0 0,-22 -22,0 z m 16.625,2 c 0.69219,-0.046173 1.290497,0.159052 1.53125,0.625 0.391745,0.758178 -0.134761,2.097239 -1.28125,3.3125 -1.061318,1.124979 -2.212266,1.675835 -2.84375,1.34375 C -16.307853,7.102924 -16.66202,6.531842 -16.75,6.0625 -16.920629,5.152217 -16.283895,3.517873 -15.5,2.875 -14.86022,2.350316 -14.06719,2.046173 -13.375,2 z m -5.65625,0.71875 c 0.587443,-5.29e-4 0.93136,0.387341 1.03125,1.1875 0.122053,0.977691 -0.466886,2.437543 -1.09375,2.65625 -0.378449,0.132036 -0.385988,0.145631 -0.6875,0 -0.40553,-0.195868 -0.71625,-0.99108 -0.71875,-1.875 -0.0037,-1.290792 0.505789,-1.967884 1.46875,-1.96875 z m -3.8125,1.3125 c 0.540549,-0.078161 1.052166,0.4914325 1.25,1.5625 0.129721,0.702307 0.01014,1.342367 -0.375,1.75 -0.355534,0.376298 -0.638649,0.351546 -1.03125,-0.0625 -0.524855,-0.553525 -0.71385,-0.975697 -0.71875,-1.75 -0.0042,-0.656543 3.86e-4,-0.843854 0.34375,-1.1875 0.170347,-0.170488 0.351067,-0.286447 0.53125,-0.3125 z m -2.6875,2.34375 c 0.560853,-0.091231 1.131096,0.4483425 1.34375,1.40625 0.298827,1.346081 -0.407075,2.049419 -1.28125,1.28125 -0.732419,-0.643602 -1.055096,-1.91327 -0.59375,-2.375 0.1758,-0.1759448 0.344299,-0.282089 0.53125,-0.3125 z M -17.5,8.0625 c 1.85718,0.031955 3.14852,0.7276993 3.28125,1.90625 0.128489,1.140889 -0.735884,2.17506 -3.25,3.875 -1.784687,1.20673 -2.5,1.868506 -2.5,2.3125 0,0.638209 0.793132,1.25 1.5625,1.25 0.485462,0 0.72281,-0.260882 0.9375,-1 0.284244,-0.978569 0.86548,-1.29965 2.25,-1.3125 0.969842,-0.009 1.26798,0.200172 1.3125,0.96875 0.02607,0.450123 -0.01637,0.68025 -0.28125,1.21875 -0.434197,0.882715 -1.448714,1.902761 -2.34375,2.34375 -0.610748,0.30092 -0.803284,0.34319 -1.75,0.375 -0.825837,0.02774 -1.179264,-0.0069 -1.625,-0.15625 -0.859598,-0.287937 -1.374662,-0.595047 -2.21875,-1.28125 -2.265604,-1.841822 -3.454419,-4.540537 -2.8125,-6.4375 0.265198,-0.783694 0.578111,-1.293285 1.125,-1.84375 0.94959,-0.9558013 2.43049,-1.653779 4.28125,-2.03125 0.718447,-0.146531 1.41219,-0.198152 2.03125,-0.1875 z"
         id="path3760"
         inkscape:connector-curvature="0" />
    </clipPath>
    <linearGradient
       inkscape:collect="always"
       xlink:href="#StandardGradient-1"
       id="linearGradient6801"
       gradientUnits="userSpaceOnUse"
       x1="12"
       y1="8"
       x2="12"
       y2="20.041595" />
    <linearGradient
       inkscape:collect="always"
       xlink:href="#StandardGradient-1"
       id="linearGradient6806"
       gradientUnits="userSpaceOnUse"
       x1="12"
       y1="8"
       x2="12"
       y2="20.041595" />
    <linearGradient
       inkscape:collect="always"
       xlink:href="#StandardGradient-1"
       id="linearGradient6810"
       gradientUnits="userSpaceOnUse"
       x1="12"
       y1="8"
       x2="12"
       y2="20.041595" />
    <linearGradient
       inkscape:collect="always"
       xlink:href="#StandardGradient-1-1"
       id="linearGradient3745"
       x1="13"
       y1="2"
       x2="13"
       y2="18.031219"
       gradientUnits="userSpaceOnUse"
       gradientTransform="matrix(1.1252108,0,0,1.1249999,-2.5078172,-0.2808096)" />
    <linearGradient
       id="StandardGradient-1-1"
       gradientTransform="matrix(0.9984539,0,0,0.9984539,-0.0459776,0.05767558)"
       x1="10.710332"
       y1="1.9963325"
       x2="10.710332"
       y2="18.974037"
       gradientUnits="userSpaceOnUse">
      <stop
         style="stop-color:#000000;stop-opacity:0.86274511;"
         offset="0"
         id="stop3277-4-7" />
      <stop
         style="stop-color:#000000;stop-opacity:0.47058824;"
         offset="1"
         id="stop3279-3-5" />
    </linearGradient>
    <linearGradient
       inkscape:collect="always"
       xlink:href="#StandardGradient-1-6"
       id="linearGradient4006"
       gradientUnits="userSpaceOnUse"
       x1="9"
       y1="2"
       x2="9"
       y2="19.117243" />
    <linearGradient
       id="StandardGradient-1-6"
       gradientTransform="matrix(0.9984539,0,0,0.9984539,-0.0459776,0.05767558)"
       x1="10.710332"
       y1="1.9963325"
       x2="10.710332"
       y2="18.974037"
       gradientUnits="userSpaceOnUse">
      <stop
         style="stop-color:#000000;stop-opacity:0.86274511;"
         offset="0"
         id="stop3277-4-72" />
      <stop
         style="stop-color:#000000;stop-opacity:0.47058824;"
         offset="1"
         id="stop3279-3-7" />
    </linearGradient>
    <linearGradient
       id="StandardGradient-1-13"
       gradientTransform="matrix(0.9984539,0,0,0.9984539,-0.0459776,0.05767558)"
       x1="10.710332"
       y1="1.9963325"
       x2="10.710332"
       y2="18.974037"
       gradientUnits="userSpaceOnUse">
      <stop
         style="stop-color:#000000;stop-opacity:0.86274511;"
         offset="0"
         id="stop3277-4-77" />
      <stop
         style="stop-color:#000000;stop-opacity:0.47058824;"
         offset="1"
         id="stop3279-3-6" />
    </linearGradient>
    <radialGradient
       r="154.62019"
       fy="126.15498"
       fx="126.15849"
       cy="126.15498"
       cx="126.15849"
       gradientTransform="matrix(0.07134324,0,0,0.07134521,1.9994442,-28.000554)"
       gradientUnits="userSpaceOnUse"
       id="radialGradient3007"
       xlink:href="#radial-gradient"
       inkscape:collect="always" />
    <radialGradient
       gradientUnits="userSpaceOnUse"
       id="radial-gradient"
       fy="133.10451"
       fx="115.8989"
       r="154.62019"
       cy="133.10451"
       cx="115.8989">
      <stop
         id="translucent-stop-color"
         offset="0"
         style="stop-color:#003364;stop-opacity:0;" />
      <stop
         id="opaque-blue-stop-color"
         offset="1"
         style="stop-color:#0067c8;stop-opacity:1;" />
    </radialGradient>
    <linearGradient
       id="StandardGradient-1-19"
       gradientTransform="matrix(0.9984539,0,0,0.9984539,-0.0459776,0.05767558)"
       x1="10.710332"
       y1="1.9963325"
       x2="10.710332"
       y2="18.974037"
       gradientUnits="userSpaceOnUse">
      <stop
         style="stop-color:#000000;stop-opacity:0.86274511;"
         offset="0"
         id="stop3277-4-2" />
      <stop
         style="stop-color:#000000;stop-opacity:0.47058824;"
         offset="1"
         id="stop3279-3-66" />
    </linearGradient>
    <linearGradient
       inkscape:collect="always"
       xlink:href="#StandardGradient-1-16"
       id="linearGradient4019"
       x1="11.81854"
       y1="2.1399267"
       x2="11.81854"
       y2="18.821463"
       gradientUnits="userSpaceOnUse" />
    <linearGradient
       id="StandardGradient-1-16"
       gradientTransform="matrix(0.9984539,0,0,0.9984539,-0.0459776,0.05767558)"
       x1="10.710332"
       y1="1.9963325"
       x2="10.710332"
       y2="18.974037"
       gradientUnits="userSpaceOnUse">
      <stop
         style="stop-color:#000000;stop-opacity:0.86274511;"
         offset="0"
         id="stop3277-4-75" />
      <stop
         style="stop-color:#000000;stop-opacity:0.47058824;"
         offset="1"
         id="stop3279-3-8" />
    </linearGradient>
  </defs>
  <sodipodi:namedview
     id="base"
     pagecolor="#ffffff"
     bordercolor="#f05656"
     borderopacity="1"
     inkscape:pageopacity="0.0"
     inkscape:pageshadow="2"
     inkscape:zoom="22.640001"
     inkscape:cx="0.13933356"
     inkscape:cy="7.3682797"
     inkscape:document-units="px"
     inkscape:current-layer="layer1"
     showgrid="true"
     inkscape:showpageshadow="false"
     showguides="true"
     inkscape:guide-bbox="true"
     inkscape:window-width="1366"
     inkscape:window-height="709"
     inkscape:window-x="0"
     inkscape:window-y="27"
     inkscape:window-maximized="1">
    <sodipodi:guide
       orientation="1,0"
       position="0,112"
       id="guide2383" />
    <sodipodi:guide
       orientation="0,1"
       position="26.278146,128"
       id="guide2385" />
    <sodipodi:guide
       orientation="1,0"
       position="128,54.082119"
       id="guide2387" />
    <sodipodi:guide
       orientation="0,1"
       position="78.156291,0"
       id="guide2389" />
    <sodipodi:guide
       orientation="0,1"
       position="60.863576,64.084768"
       id="guide2391" />
    <inkscape:grid
       type="xygrid"
       id="grid3672"
       visible="true"
       enabled="true"
       empspacing="8"
       snapvisiblegridlinesonly="true" />
  </sodipodi:namedview>
  <metadata
     id="metadata7">
    <rdf:RDF>
      <cc:Work
         rdf:about="">
        <dc:format>image/svg+xml</dc:format>
        <dc:type
           rdf:resource="http://purl.org/dc/dcmitype/StillImage" />
        <dc:title />
      </cc:Work>
    </rdf:RDF>
  </metadata>
  <g
     inkscape:groupmode="layer"
     id="layer2"
     inkscape:label="Dark background"
     sodipodi:insensitive="true"
     style="display:none"
     transform="translate(0,-6)">
    <rect
       y="0"
       x="0"
       height="22"
       width="22"
       id="rect4898"
       style="fill:#333333;fill-opacity:1;fill-rule:nonzero;stroke:none;display:inline" />
  </g>
  <g
     inkscape:groupmode="layer"
     id="layer3"
     inkscape:label="Pale darkground"
     sodipodi:insensitive="true"
     style="display:none"
     transform="translate(0,-6)">
    <rect
       style="fill:#efebe7;fill-opacity:1;fill-rule:nonzero;stroke:none"
       id="rect4126"
       width="22"
       height="22"
       x="0"
       y="0" />
  </g>
  <g
     inkscape:label="Button"
     inkscape:groupmode="layer"
     id="layer1"
     style="display:inline"
     transform="translate(0,-6)">
    <path
       style="opacity:0.3127572;fill:#000000;fill-opacity:1;stroke:none;display:inline;stroke-opacity:1"
       d="M 8.4375 0.65625 C 7.8476285 0.69737005 7.2741197 0.8367365 6.71875 1.09375 C 5.052007 1.999606 4.911713 4.426621 6.03125 5.6875 C 6.135763 5.805202 6.249806 5.898061 6.375 6 L 11.21875 10.3125 L 11.21875 5.8125 L 10 5.78125 L 10.0625 7.4375 C 9.2728718 6.722745 8.704265 6.431371 7.78125 5.53125 C 7.100172 4.867058 6.84336 4.675703 6.65625 3.8125 C 6.490994 3.0427908 6.55373 1.873832 8.9375 1.84375 C 9.653485 1.85717 10.817022 1.917343 12.09375 3.0625 C 12.629981 3.5434726 13.482701 4.263818 13.96875 5.1875 C 15.103421 7.549141 14.09375 10.15625 13.09375 12.15625 C 13.9527 11.389748 15.475771 9.34844 15.34375 6.375 C 15.102993 5.424024 15.036041 5.09527 14.75 4.46875 C 14.519191 3.9632074 13.781838 3.002119 13.3125 2.53125 C 12.049093 1.2963188 10.207114 0.53288986 8.4375 0.65625 z M 2.90625 3.09375 C 2.23678 3.09375 1.6875 3.680061 1.6875 4.40625 C 1.6875 5.132442 2.23678 5.71875 2.90625 5.71875 C 3.575721 5.71875 4.09375 5.132442 4.09375 4.40625 C 4.09375 3.680061 3.575721 3.09375 2.90625 3.09375 z M 1.21875 5.375 C 0.64051211 6.808194 0.56281204 8.19578 0.84375 9.8125 C 1.084507 10.763476 1.151459 10.90473 1.4375 11.53125 C 1.668309 12.036793 2.436912 12.997881 2.90625 13.46875 C 4.590793 15.115325 7.278521 15.934304 9.5 14.90625 C 11.166744 14.000394 11.307039 11.573379 10.1875 10.3125 C 10.082986 10.194798 9.9376928 10.101939 9.8125 10 L 4.96875 5.6875 L 4.96875 10.15625 L 6.21875 10.21875 L 6.15625 8.53125 C 6.945878 9.246005 7.514485 9.568629 8.4375 10.46875 C 9.118578 11.132942 9.3753896 11.324295 9.5625 12.1875 C 9.7277558 12.957212 9.6337704 14.126168 7.25 14.15625 C 6.534015 14.14283 5.370478 14.082657 4.09375 12.9375 C 3.557519 12.456527 2.704799 11.736182 2.21875 10.8125 C 1.671446 9.761515 1.576502 9.233058 1.375 8.25 C 1.220299 7.495268 1.0669641 6.330748 1.21875 5.375 z "
       transform="translate(0,6)"
       id="path3933-5-6-9" />
    <path
       style="fill:#ffffff;stroke:#000000;stroke-width:0.96582341px;stroke-linecap:butt;stroke-linejoin:miter;stroke-opacity:1;display:inline"
       d="m 9.9048517,16.554435 0,0"
       id="path3168-3"
       inkscape:connector-curvature="0" />
    <path
       style="opacity:0.57613172000000001;fill:#000000;fill-opacity:1;stroke:none;display:inline;stroke-width:0.8;stroke-miterlimit:4;stroke-dasharray:none"
       d="m -29.540528,9.8321041 c -0.589864,0.041304 -1.196604,0.165193 -1.751974,0.4222059 -1.666733,0.905858 -1.784077,3.323072 -0.664542,4.58395 0.104509,0.117705 0.207078,0.229793 0.332271,0.331735 l 4.863238,4.312527 0,-4.493476 -0.815574,0.03013 0,2.653865 c -0.789631,-0.714728 -2.309083,-2.085451 -3.23209,-2.98557 -0.681085,-0.664192 -0.900316,-0.79546 -1.087432,-1.658669 -0.165246,-0.769702 0.455639,-2.472994 2.839405,-2.503074 1.016702,0.01906 3.552218,0.465849 5.19551,3.58875 1.481786,2.272414 0.679024,5.958908 -1.087431,7.961588 -0.624523,0.719673 -1.367116,1.308713 -1.782181,1.658668 0.512835,-0.144276 1.601626,-0.996202 2.386305,-1.96024 1.056031,-1.29741 1.740208,-2.635912 1.842595,-4.523632 0.163712,-1.246962 -0.05217,-2.034598 -0.755161,-3.618905 -0.230808,-0.505543 -0.98057,-1.459218 -1.449908,-1.930085 -1.263402,-1.234934 -3.063437,-1.9936763 -4.833031,-1.8697679 z"
       id="path3874" />
    <path
       style="opacity:0.57613172000000001;fill:#000000;fill-opacity:1;stroke:none;display:inline;stroke-width:0.8;stroke-miterlimit:4;stroke-dasharray:none"
       d="m -34.917275,12.09392 c -0.66947,0 -1.208257,0.600742 -1.208257,1.326933 0,0.726192 0.538787,1.29678 1.208257,1.29678 0.669471,0 1.208258,-0.570588 1.208258,-1.29678 0,-0.726191 -0.538787,-1.326933 -1.208258,-1.326933 z"
       id="path3872" />
    <path
       style="opacity:0.57613172000000001;fill:#000000;fill-opacity:1;stroke:none;display:inline;stroke-width:0.20000000000000001;stroke-miterlimit:4;stroke-dasharray:none;stroke-opacity:1"
       d="m -36.608835,14.385896 c -0.578238,1.433194 -0.643415,2.816438 -0.362477,4.433158 0.240757,0.950976 0.318087,1.09246 0.604128,1.71898 0.230809,0.505543 0.980571,1.459216 1.449909,1.930085 1.684543,1.646575 4.363525,2.475613 6.585004,1.447559 1.666745,-0.905856 1.814291,-3.323068 0.694752,-4.583947 C -27.742032,19.214029 -27.874806,19.101939 -28,19 l -4.83303,-4.312529 0,4.493474 0.815574,-0.03016 0,-2.653864 c 0.789628,0.714755 2.278868,2.085476 3.201883,2.985597 0.681078,0.664192 0.900321,0.795458 1.087431,1.658663 0.165256,0.769712 -0.455639,2.472999 -2.839405,2.503081 -1.016702,-0.01906 -3.552209,-0.465845 -5.195508,-3.58875 -0.967489,-1.857867 -1.195278,-3.468968 -0.84578,-5.669616 z"
       id="path3933-5" />
    <path
       style="fill:#ffffff;stroke:#000000;stroke-width:0.96582341px;stroke-linecap:butt;stroke-linejoin:miter;stroke-opacity:1;display:inline"
       d="m 0.23879175,5.9389806 0,0"
       id="path3168-9-9"
       inkscape:connector-curvature="0" />
  </g>
</svg>
